<?xml version="1.0" encoding="utf-8"?>
<!-- Generator: Adobe Illustrator 28.2.0, SVG Export Plug-In . SVG Version: 6.00 Build 0)  -->
<svg version="1.1" id="レイヤー_1" xmlns="http://www.w3.org/2000/svg" xmlns:xlink="http://www.w3.org/1999/xlink" x="0px"
	 y="0px" viewBox="0 0 1600 800" style="enable-background:new 0 0 1600 800;" xml:space="preserve">
<style type="text/css">
	.st0{fill:#FFFFFF;}
</style>
<g>
	<g>
		<path class="st0" d="M58.12,697.61v-74.65H26.68v-8.69h73.57v8.69H68.82v74.65H58.12z"/>
		<path class="st0" d="M139.72,698.92c-8.21,0-14.67-2.24-19.4-6.73c-4.73-4.48-7.09-10.46-7.09-17.92v-38.22h10.3v35.96
			c0,5.79,1.67,10.34,5.02,13.63c3.34,3.29,8.05,4.94,14.11,4.94c5.97,0,10.92-1.79,14.85-5.36c3.92-3.57,5.89-8.21,5.89-13.93
			v-35.24h10.17v61.55h-10.17v-10.72C157.77,694.91,149.88,698.92,139.72,698.92z"/>
		<path class="st0" d="M192.69,697.61v-61.55h10.3v16.07c2.68-5.32,6.46-9.56,11.37-12.74c4.9-3.17,10.52-4.64,16.85-4.41v9.88h-0.8
			c-7.94,0-14.49,2.46-19.66,7.38c-5.17,4.92-7.76,11.87-7.76,20.83v24.53H192.69z"/>
		<path class="st0" d="M242.85,697.61v-61.55h10.3v10.72c5.44-8.02,13.33-12.02,23.68-12.02c8.2,0,14.67,2.24,19.4,6.73
			c4.73,4.48,7.09,10.46,7.09,17.92v38.22h-10.3v-35.96c0-5.79-1.67-10.34-5.02-13.63c-3.34-3.29-8.05-4.94-14.11-4.94
			c-5.98,0-10.93,1.79-14.85,5.36c-3.93,3.57-5.89,8.22-5.89,13.93v35.24H242.85z"/>
		<path class="st0" d="M359.1,697.61v-83.34h10.57v74.65h52.71v8.69H359.1z"/>
		<path class="st0" d="M436.42,622.6v-10.12h11.77v10.12H436.42z M437.08,697.61v-61.55h10.3v61.55H437.08z"/>
		<path class="st0" d="M471.19,697.61v-53.46h-9.5v-7.98h9.5v-5.36c0-6.98,2.01-12.26,6.02-15.83c3.57-3.17,8.52-4.76,14.85-4.76
			c4.37,0,8.16,0.52,11.37,1.55v7.98c-4.1-1.03-7.45-1.55-10.03-1.55c-8.03,0-12.04,4.37-12.04,13.1v5h21.94v7.86h-21.8v53.46
			H471.19z"/>
		<path class="st0" d="M518.55,670.58c0.71,6.27,3.37,11.25,7.96,14.94c4.59,3.69,10.05,5.54,16.39,5.54c8.29,0,15.56-2.9,21.8-8.69
			l6.42,5.12c-7.76,7.7-17.26,11.55-28.49,11.55c-9.72,0-17.9-3-24.55-8.99c-6.64-5.99-9.97-13.71-9.97-23.16
			c0-8.97,3.16-16.57,9.5-22.8c6.33-6.23,14.22-9.35,23.68-9.35c9.9,0,17.75,3.1,23.54,9.29c5.8,6.19,8.69,13.97,8.69,23.33
			c0,1.19-0.05,2.26-0.13,3.21H518.55z M518.55,663.2h44.55c-0.63-5.95-2.83-10.89-6.62-14.82c-3.79-3.93-8.94-5.89-15.45-5.89
			c-5.89,0-10.93,1.95-15.12,5.83C521.71,652.21,519.26,657.17,518.55,663.2z"/>
		<path class="st0" d="M623.96,622.6v-10.12h11.77v10.12H623.96z M624.63,697.61v-61.55h10.3v61.55H624.63z"/>
		<path class="st0" d="M654.86,697.61v-61.55h10.3v10.72c5.44-8.02,13.33-12.02,23.68-12.02c8.2,0,14.67,2.24,19.4,6.73
			c4.73,4.48,7.09,10.46,7.09,17.92v38.22h-10.3v-35.96c0-5.79-1.67-10.34-5.02-13.63c-3.34-3.29-8.05-4.94-14.11-4.94
			c-5.98,0-10.93,1.79-14.85,5.36c-3.93,3.57-5.89,8.22-5.89,13.93v35.24H654.86z"/>
		<path class="st0" d="M756.39,698.68c-5.98,0-10.72-1.41-14.25-4.23c-3.52-2.82-5.28-7.2-5.28-13.16v-37.15h-9.63v-8.1h9.63v-18.57
			h10.3v18.57h21.94v8.1h-21.94v35.96c0,6.83,3.88,10.24,11.64,10.24c3.39,0,6.73-0.71,10.03-2.14v7.86
			C765.08,697.8,760.94,698.68,756.39,698.68z"/>
		<path class="st0" d="M840.66,689.57c-6.96,6.31-15.56,9.46-25.82,9.46c-10.26,0-18.79-3.13-25.62-9.41
			c-6.82-6.27-10.23-13.85-10.23-22.74c0-8.81,3.46-16.37,10.37-22.68c6.91-6.31,15.49-9.46,25.75-9.46
			c10.26,0,18.82,3.14,25.68,9.41c6.87,6.27,10.3,13.85,10.3,22.74C851.1,675.7,847.62,683.26,840.66,689.57z M815.11,690.82
			c7.4,0,13.49-2.3,18.26-6.91c4.77-4.6,7.16-10.28,7.16-17.03c0-6.67-2.48-12.34-7.42-17.03c-4.95-4.68-11.04-7.02-18.26-7.02
			c-7.4,0-13.47,2.32-18.19,6.97c-4.73,4.64-7.09,10.34-7.09,17.08c0,6.67,2.45,12.32,7.36,16.97
			C801.82,688.5,807.89,690.82,815.11,690.82z"/>
		<path class="st0" d="M903.53,697.61v-83.34h10.7l34.11,45.48l34.11-45.48h10.7v83.34h-10.57V630.1l-34.11,44.65h-0.53
			l-34.11-44.53v67.39H903.53z"/>
		<path class="st0" d="M1020.05,670.58c0.71,6.27,3.37,11.25,7.96,14.94c4.59,3.69,10.05,5.54,16.39,5.54
			c8.29,0,15.56-2.9,21.8-8.69l6.42,5.12c-7.76,7.7-17.26,11.55-28.49,11.55c-9.72,0-17.9-3-24.55-8.99
			c-6.64-5.99-9.97-13.71-9.97-23.16c0-8.97,3.16-16.57,9.5-22.8c6.33-6.23,14.22-9.35,23.68-9.35c9.9,0,17.75,3.1,23.54,9.29
			c5.8,6.19,8.7,13.97,8.7,23.33c0,1.19-0.05,2.26-0.13,3.21H1020.05z M1020.05,663.2h44.55c-0.62-5.95-2.83-10.89-6.62-14.82
			c-3.79-3.93-8.94-5.89-15.45-5.89c-5.89,0-10.93,1.95-15.12,5.83C1023.21,652.21,1020.76,657.17,1020.05,663.2z"/>
		<path class="st0" d="M1109.67,698.92c-7.05,0-13.11-1.71-18.19-5.12c-5.08-3.41-7.63-8.17-7.63-14.29
			c0-6.43,2.68-11.39,8.03-14.88c5.35-3.49,12.53-5.24,21.54-5.24c7.13,0,14.18,0.87,21.14,2.62v-1.9c0-5.4-1.79-9.52-5.35-12.38
			c-3.57-2.86-8.61-4.29-15.12-4.29c-6.78,0-13.78,1.47-21,4.4l-3.08-7.5c8.56-3.49,16.94-5.24,25.15-5.24
			c9.81,0,17.26,2.26,22.34,6.79c4.82,4.29,7.22,10.32,7.22,18.1v37.62h-10.17v-9.17C1128.4,695.43,1120.11,698.92,1109.67,698.92z
			 M1111.68,691.53c6.42,0,11.86-1.55,16.32-4.64c4.46-3.1,6.69-7.06,6.69-11.91v-5.71c-6.78-1.74-13.51-2.62-20.2-2.62
			c-6.33,0-11.28,1.13-14.85,3.39c-3.57,2.26-5.35,5.34-5.35,9.23c0,3.73,1.67,6.71,5.02,8.93
			C1102.65,690.42,1106.77,691.53,1111.68,691.53z"/>
		<path class="st0" d="M1162.51,697.61v-61.55h10.3v10.72c5.44-8.02,13.33-12.02,23.68-12.02c8.2,0,14.67,2.24,19.4,6.73
			c4.73,4.48,7.09,10.46,7.09,17.92v38.22h-10.3v-35.96c0-5.79-1.67-10.34-5.02-13.63c-3.34-3.29-8.05-4.94-14.11-4.94
			c-5.98,0-10.93,1.79-14.85,5.36c-3.93,3.57-5.89,8.22-5.89,13.93v35.24H1162.51z"/>
		<path class="st0" d="M1241.17,622.6v-10.12h11.77v10.12H1241.17z M1241.84,697.61v-61.55h10.3v61.55H1241.84z"/>
		<path class="st0" d="M1272.07,697.61v-61.55h10.3v10.72c5.44-8.02,13.33-12.02,23.68-12.02c8.2,0,14.67,2.24,19.4,6.73
			c4.73,4.48,7.09,10.46,7.09,17.92v38.22h-10.3v-35.96c0-5.79-1.67-10.34-5.02-13.63c-3.34-3.29-8.05-4.94-14.11-4.94
			c-5.98,0-10.93,1.79-14.85,5.36c-3.93,3.57-5.89,8.22-5.89,13.93v35.24H1272.07z"/>
		<path class="st0" d="M1381.09,716.89c-11.68,0-22.16-2.86-31.44-8.57l4.68-7.14c8.11,5.24,16.99,7.86,26.62,7.86
			c7.76,0,13.89-1.89,18.39-5.65c4.5-3.77,6.75-9.19,6.75-16.25v-7.26c-7.31,8.65-16.37,12.98-27.16,12.98
			c-8.74,0-16.34-2.68-22.81-8.04c-6.47-5.36-9.7-12.36-9.7-21.01c0-8.65,3.25-15.66,9.77-21.01c6.51-5.36,14.09-8.04,22.74-8.04
			c11.06,0,20.07,4.13,27.02,12.38v-11.07h10.3v50.84c0,9.29-2.94,16.55-8.83,21.79C1401.29,714.16,1392.5,716.89,1381.09,716.89z
			 M1380.96,684.75c6.78,0,12.71-1.98,17.79-5.95c5.08-3.97,7.62-9.01,7.62-15.12c0-6.11-2.52-11.11-7.56-15
			c-5.04-3.89-10.99-5.83-17.86-5.83c-6.78,0-12.46,1.93-17.06,5.77c-4.59,3.85-6.89,8.91-6.89,15.18c0,6.03,2.34,11.03,7.02,15
			C1368.72,682.77,1374.35,684.75,1380.96,684.75z"/>
		<path class="st0" d="M1439.14,697.61v-53.46h-9.5v-7.98h9.5v-5.36c0-6.98,2.01-12.26,6.02-15.83c3.57-3.17,8.52-4.76,14.85-4.76
			c4.37,0,8.16,0.52,11.37,1.55v7.98c-4.1-1.03-7.45-1.55-10.03-1.55c-8.03,0-12.04,4.37-12.04,13.1v5h21.94v7.86h-21.8v53.46
			H1439.14z"/>
		<path class="st0" d="M1505.76,698.92c-8.21,0-14.67-2.24-19.4-6.73c-4.73-4.48-7.09-10.46-7.09-17.92v-38.22h10.3v35.96
			c0,5.79,1.67,10.34,5.02,13.63c3.34,3.29,8.05,4.94,14.11,4.94c5.97,0,10.92-1.79,14.85-5.36c3.92-3.57,5.88-8.21,5.88-13.93
			v-35.24h10.17v61.55h-10.17v-10.72C1523.82,694.91,1515.93,698.92,1505.76,698.92z"/>
		<path class="st0" d="M1559.67,697.61V610.7h10.3v86.91H1559.67z"/>
	</g>
	<g>
		<path class="st0" d="M194.95,538.76V139.19H26.68V92.66h393.83v46.52H252.24v399.58H194.95z"/>
		<path class="st0" d="M505,538.76V92.66h56.57v399.58h282.12v46.52H505z"/>
		<path class="st0" d="M918.86,137.27V83.11h63.01v54.17H918.86z M922.44,538.76V209.29h55.14v329.47H922.44z"/>
		<path class="st0" d="M1093.57,538.76V92.66h57.28l182.59,243.44l182.59-243.44h57.28v446.1h-56.57V177.42L1334.16,416.4h-2.86
			L1148.7,178.06v360.7H1093.57z"/>
	</g>
</g>
</svg>
